<svg xmlns="http://www.w3.org/2000/svg" xmlns:xlink="http://www.w3.org/1999/xlink" width="500" zoomAndPan="magnify" viewBox="0 0 375 374.999991" height="500" preserveAspectRatio="xMidYMid meet" version="1.0"><defs><g/><clipPath id="d199972e4b"><path d="M 168.738281 217.289062 L 194.371094 217.289062 L 194.371094 230.757812 L 168.738281 230.757812 Z M 168.738281 217.289062 " clip-rule="nonzero"/></clipPath><clipPath id="0bcf5eb0bb"><path d="M 168.738281 217.289062 L 194.238281 217.289062 L 194.238281 230.753906 L 168.738281 230.753906 Z M 168.738281 217.289062 " clip-rule="nonzero"/></clipPath></defs><g fill="#ffffff" fill-opacity="0.4"><g transform="translate(59.847943, 215.876544)"><g><path d="M 31.390625 -30.546875 L 56.03125 0 L 45.921875 0 L 26.609375 -23.890625 L 7.96875 1.5 L 7.96875 -61 L 15.921875 -61 L 15.921875 -22.484375 L 44.046875 -61 L 53.6875 -61 Z M 31.390625 -30.546875 "/></g></g></g><g fill="#ffffff" fill-opacity="0.4"><g transform="translate(112.602456, 215.876544)"><g><path d="M 16.015625 -26.609375 L 16.015625 0 L 8.0625 0 L 8.0625 -61 L 16.015625 -61 L 16.015625 -34.484375 L 45.828125 -34.484375 L 45.828125 -61 L 53.6875 -61 L 53.6875 0 L 45.921875 0 L 45.828125 -26.609375 Z M 16.015625 -26.609375 "/></g></g></g><g fill="#ffffff" fill-opacity="0.4"><g transform="translate(166.200295, 215.876544)"><g><path d="M 7.96875 -61 L 46.9375 -61 L 46.9375 -53.125 L 15.734375 -53.125 L 15.734375 -34.484375 L 39.640625 -34.484375 L 39.640625 -26.609375 L 15.734375 -26.609375 L 15.734375 -7.78125 L 46.9375 -7.78125 L 46.9375 0 L 7.96875 0 Z M 7.96875 -61 "/></g></g></g><g fill="#ffffff" fill-opacity="0.4"><g transform="translate(212.957807, 215.876544)"><g><path d="M 15.921875 0 L 8.0625 0 L 8.0625 -61.9375 L 47.6875 -19.109375 L 47.6875 -61 L 55.46875 -61 L 55.46875 1.5 L 15.921875 -41.515625 Z M 15.921875 0 "/></g></g></g><g fill="#ffffff" fill-opacity="0.4"><g transform="translate(268.242322, 215.876544)"><g><path d="M 34.953125 -53.125 L 8.34375 -53.125 L 8.34375 -61 L 47.875 -61 L 20.234375 -7.78125 L 46.765625 -7.78125 L 46.765625 0 L 7.3125 0 Z M 34.953125 -53.125 "/></g></g></g><g fill="#ffffff" fill-opacity="1"><g transform="translate(55.706628, 211.735224)"><g><path d="M 31.390625 -30.546875 L 56.03125 0 L 45.921875 0 L 26.609375 -23.890625 L 7.96875 1.5 L 7.96875 -61 L 15.921875 -61 L 15.921875 -22.484375 L 44.046875 -61 L 53.6875 -61 Z M 31.390625 -30.546875 "/></g></g></g><g fill="#ffffff" fill-opacity="1"><g transform="translate(108.461141, 211.735224)"><g><path d="M 16.015625 -26.609375 L 16.015625 0 L 8.0625 0 L 8.0625 -61 L 16.015625 -61 L 16.015625 -34.484375 L 45.828125 -34.484375 L 45.828125 -61 L 53.6875 -61 L 53.6875 0 L 45.921875 0 L 45.828125 -26.609375 Z M 16.015625 -26.609375 "/></g></g></g><g fill="#ffffff" fill-opacity="1"><g transform="translate(162.05898, 211.735224)"><g><path d="M 7.96875 -61 L 46.9375 -61 L 46.9375 -53.125 L 15.734375 -53.125 L 15.734375 -34.484375 L 39.640625 -34.484375 L 39.640625 -26.609375 L 15.734375 -26.609375 L 15.734375 -7.78125 L 46.9375 -7.78125 L 46.9375 0 L 7.96875 0 Z M 7.96875 -61 "/></g></g></g><g fill="#ffffff" fill-opacity="1"><g transform="translate(208.816492, 211.735224)"><g><path d="M 15.921875 0 L 8.0625 0 L 8.0625 -61.9375 L 47.6875 -19.109375 L 47.6875 -61 L 55.46875 -61 L 55.46875 1.5 L 15.921875 -41.515625 Z M 15.921875 0 "/></g></g></g><g fill="#ffffff" fill-opacity="1"><g transform="translate(264.101007, 211.735224)"><g><path d="M 34.953125 -53.125 L 8.34375 -53.125 L 8.34375 -61 L 47.875 -61 L 20.234375 -7.78125 L 46.765625 -7.78125 L 46.765625 0 L 7.3125 0 Z M 34.953125 -53.125 "/></g></g></g><g clip-path="url(#d199972e4b)"><path fill="#ffa500" d="M 168.738281 217.289062 L 194.359375 217.289062 L 194.359375 230.757812 L 168.738281 230.757812 Z M 168.738281 217.289062 " fill-opacity="1" fill-rule="nonzero"/></g><g clip-path="url(#0bcf5eb0bb)"><path stroke-linecap="butt" transform="matrix(0.75, 0, 0, 0.75, 168.740048, 217.2888)" fill="none" stroke-linejoin="miter" d="M -0.00235543 0.000349825 L 34.164313 0.000349825 L 34.164313 17.953476 L -0.00235543 17.953476 Z M -0.00235543 0.000349825 " stroke="#2e2e2e" stroke-width="2" stroke-opacity="1" stroke-miterlimit="4"/></g><g fill="#ffffff" fill-opacity="1"><g transform="translate(195.816836, 226.635395)"><g><path d="M 0.671875 0 L 0.671875 -5.625 L 1.953125 -5.625 L 1.953125 -3.46875 L 2.4375 -3.46875 C 2.75 -3.46875 2.976562 -3.519531 3.125 -3.625 C 3.28125 -3.726562 3.40625 -3.910156 3.5 -4.171875 L 4.03125 -5.625 L 5.421875 -5.625 L 4.640625 -3.625 C 4.566406 -3.445312 4.484375 -3.285156 4.390625 -3.140625 C 4.304688 -2.992188 4.207031 -2.867188 4.09375 -2.765625 L 5.609375 0 L 4.125 0 L 2.921875 -2.28125 C 2.867188 -2.28125 2.820312 -2.28125 2.78125 -2.28125 C 2.738281 -2.28125 2.6875 -2.28125 2.625 -2.28125 L 1.953125 -2.28125 L 1.953125 0 Z M 0.671875 0 "/></g></g></g><g fill="#ffffff" fill-opacity="1"><g transform="translate(203.6174, 226.635395)"><g><path d="M 0.671875 0 L 0.671875 -5.625 L 4.375 -5.625 L 4.375 -4.546875 L 1.953125 -4.546875 L 1.953125 -3.390625 L 4.15625 -3.390625 L 4.15625 -2.3125 L 1.953125 -2.3125 L 1.953125 -1.09375 L 4.46875 -1.09375 L 4.46875 0 Z M 0.671875 0 "/></g></g></g><g fill="#ffffff" fill-opacity="1"><g transform="translate(210.444902, 226.635395)"><g><path d="M 0.671875 0 L 0.671875 -5.625 L 1.765625 -5.625 L 4.25 -2.203125 L 4.25 -5.625 L 5.515625 -5.625 L 5.515625 0 L 4.4375 0 L 1.953125 -3.453125 L 1.953125 0 Z M 0.671875 0 "/></g></g></g><g fill="#ffffff" fill-opacity="1"><g transform="translate(218.591268, 226.635395)"><g><path d="M 0.671875 0 L 0.671875 -5.625 L 1.765625 -5.625 L 4.25 -2.203125 L 4.25 -5.625 L 5.515625 -5.625 L 5.515625 0 L 4.4375 0 L 1.953125 -3.453125 L 1.953125 0 Z M 0.671875 0 "/></g></g></g><g fill="#ffffff" fill-opacity="1"><g transform="translate(226.737633, 226.635395)"><g><path d="M 0.671875 0 L 0.671875 -5.625 L 4.375 -5.625 L 4.375 -4.546875 L 1.953125 -4.546875 L 1.953125 -3.390625 L 4.15625 -3.390625 L 4.15625 -2.3125 L 1.953125 -2.3125 L 1.953125 -1.09375 L 4.46875 -1.09375 L 4.46875 0 Z M 0.671875 0 "/></g></g></g><g fill="#ffffff" fill-opacity="1"><g transform="translate(233.565135, 226.635395)"><g><path d="M 2.03125 0 L 2.03125 -4.4375 L 0.234375 -4.4375 L 0.234375 -5.625 L 5.09375 -5.625 L 5.09375 -4.4375 L 3.3125 -4.4375 L 3.3125 0 Z M 2.03125 0 "/></g></g></g><g fill="#ffffff" fill-opacity="1"><g transform="translate(240.851022, 226.635395)"><g><path d="M 4.15625 0 L 4.15625 -2.265625 L 1.953125 -2.265625 L 1.953125 0 L 0.671875 0 L 0.671875 -5.625 L 1.953125 -5.625 L 1.953125 -3.46875 L 4.15625 -3.46875 L 4.15625 -5.625 L 5.4375 -5.625 L 5.4375 0 Z M 4.15625 0 "/></g></g></g><g fill="#ffffff" fill-opacity="1"><g transform="translate(248.916973, 226.635395)"><g/></g></g><g fill="#ffffff" fill-opacity="1"><g transform="translate(252.760958, 226.635395)"><g><path d="M 0.671875 0 L 0.671875 -5.625 L 2.875 -5.625 C 3.332031 -5.625 3.726562 -5.539062 4.0625 -5.375 C 4.394531 -5.21875 4.65625 -4.984375 4.84375 -4.671875 C 5.03125 -4.367188 5.125 -4.007812 5.125 -3.59375 C 5.125 -3.1875 5.03125 -2.828125 4.84375 -2.515625 C 4.65625 -2.210938 4.394531 -1.976562 4.0625 -1.8125 C 3.726562 -1.644531 3.332031 -1.5625 2.875 -1.5625 L 1.953125 -1.5625 L 1.953125 0 Z M 1.953125 -2.671875 L 2.78125 -2.671875 C 3.113281 -2.671875 3.367188 -2.75 3.546875 -2.90625 C 3.722656 -3.0625 3.8125 -3.289062 3.8125 -3.59375 C 3.8125 -3.882812 3.722656 -4.109375 3.546875 -4.265625 C 3.367188 -4.429688 3.113281 -4.515625 2.78125 -4.515625 L 1.953125 -4.515625 Z M 1.953125 -2.671875 "/></g></g></g><g fill="#ffffff" fill-opacity="1"><g transform="translate(260.06293, 226.635395)"><g><path d="M 3.34375 0.109375 C 2.757812 0.109375 2.238281 -0.015625 1.78125 -0.265625 C 1.332031 -0.515625 0.976562 -0.859375 0.71875 -1.296875 C 0.46875 -1.734375 0.34375 -2.238281 0.34375 -2.8125 C 0.34375 -3.382812 0.46875 -3.890625 0.71875 -4.328125 C 0.976562 -4.773438 1.332031 -5.125 1.78125 -5.375 C 2.238281 -5.625 2.757812 -5.75 3.34375 -5.75 C 3.9375 -5.75 4.457031 -5.625 4.90625 -5.375 C 5.351562 -5.125 5.707031 -4.773438 5.96875 -4.328125 C 6.226562 -3.890625 6.359375 -3.382812 6.359375 -2.8125 C 6.359375 -2.238281 6.226562 -1.734375 5.96875 -1.296875 C 5.707031 -0.859375 5.351562 -0.515625 4.90625 -0.265625 C 4.457031 -0.015625 3.9375 0.109375 3.34375 0.109375 Z M 1.65625 -2.8125 C 1.65625 -2.476562 1.722656 -2.179688 1.859375 -1.921875 C 2.003906 -1.660156 2.203125 -1.457031 2.453125 -1.3125 C 2.710938 -1.175781 3.007812 -1.109375 3.34375 -1.109375 C 3.6875 -1.109375 3.984375 -1.175781 4.234375 -1.3125 C 4.492188 -1.457031 4.691406 -1.660156 4.828125 -1.921875 C 4.972656 -2.179688 5.046875 -2.476562 5.046875 -2.8125 C 5.046875 -3.15625 4.972656 -3.453125 4.828125 -3.703125 C 4.691406 -3.960938 4.492188 -4.164062 4.234375 -4.3125 C 3.984375 -4.457031 3.6875 -4.53125 3.34375 -4.53125 C 3.007812 -4.53125 2.710938 -4.457031 2.453125 -4.3125 C 2.203125 -4.164062 2.003906 -3.960938 1.859375 -3.703125 C 1.722656 -3.453125 1.65625 -3.15625 1.65625 -2.8125 Z M 1.65625 -2.8125 "/></g></g></g><g fill="#ffffff" fill-opacity="1"><g transform="translate(268.715925, 226.635395)"><g><path d="M 0.671875 0 L 0.671875 -5.625 L 2.875 -5.625 C 3.332031 -5.625 3.726562 -5.539062 4.0625 -5.375 C 4.394531 -5.21875 4.65625 -4.984375 4.84375 -4.671875 C 5.03125 -4.367188 5.125 -4.007812 5.125 -3.59375 C 5.125 -3.1875 5.03125 -2.828125 4.84375 -2.515625 C 4.65625 -2.210938 4.394531 -1.976562 4.0625 -1.8125 C 3.726562 -1.644531 3.332031 -1.5625 2.875 -1.5625 L 1.953125 -1.5625 L 1.953125 0 Z M 1.953125 -2.671875 L 2.78125 -2.671875 C 3.113281 -2.671875 3.367188 -2.75 3.546875 -2.90625 C 3.722656 -3.0625 3.8125 -3.289062 3.8125 -3.59375 C 3.8125 -3.882812 3.722656 -4.109375 3.546875 -4.265625 C 3.367188 -4.429688 3.113281 -4.515625 2.78125 -4.515625 L 1.953125 -4.515625 Z M 1.953125 -2.671875 "/></g></g></g><g fill="#ffffff" fill-opacity="1"><g transform="translate(276.017897, 226.635395)"><g><path d="M 0.671875 0 L 0.671875 -5.625 L 4.375 -5.625 L 4.375 -4.546875 L 1.953125 -4.546875 L 1.953125 -3.390625 L 4.15625 -3.390625 L 4.15625 -2.3125 L 1.953125 -2.3125 L 1.953125 -1.09375 L 4.46875 -1.09375 L 4.46875 0 Z M 0.671875 0 "/></g></g></g><g fill="#ffffff" fill-opacity="1"><g transform="translate(282.845399, 226.635395)"><g><path d="M 0.671875 0 L 0.671875 -5.625 L 3.078125 -5.625 C 3.503906 -5.625 3.875 -5.546875 4.1875 -5.390625 C 4.507812 -5.242188 4.753906 -5.023438 4.921875 -4.734375 C 5.097656 -4.441406 5.1875 -4.09375 5.1875 -3.6875 C 5.1875 -3.28125 5.09375 -2.925781 4.90625 -2.625 C 4.71875 -2.332031 4.457031 -2.109375 4.125 -1.953125 L 5.28125 0 L 3.8125 0 L 2.796875 -1.75 L 1.953125 -1.75 L 1.953125 0 Z M 1.9375 -2.828125 L 2.90625 -2.828125 C 3.226562 -2.828125 3.472656 -2.898438 3.640625 -3.046875 C 3.804688 -3.203125 3.890625 -3.414062 3.890625 -3.6875 C 3.890625 -3.957031 3.804688 -4.164062 3.640625 -4.3125 C 3.472656 -4.457031 3.226562 -4.53125 2.90625 -4.53125 L 1.9375 -4.53125 Z M 1.9375 -2.828125 "/></g></g></g><g fill="#ffffff" fill-opacity="1"><g transform="translate(290.461002, 226.635395)"><g><path d="M 0.078125 0 L 2.3125 -5.625 L 3.5625 -5.625 L 5.796875 0 L 4.4375 0 L 4.0625 -0.96875 L 1.8125 -0.96875 L 1.4375 0 Z M 2.15625 -1.984375 L 3.734375 -1.984375 L 2.9375 -4.046875 Z M 2.15625 -1.984375 "/></g></g></g><g fill="#ffffff" fill-opacity="1"><g transform="translate(174.943623, 226.077309)"><g><path d="M 3.8125 -0.640625 L 0.734375 -1.875 L 0.734375 -2.734375 L 3.8125 -3.96875 L 3.8125 -2.875 L 2.890625 -2.546875 L 2.234375 -2.296875 L 2.890625 -2.0625 L 3.8125 -1.734375 Z M 3.8125 -0.640625 "/></g></g></g><g fill="#ffffff" fill-opacity="1"><g transform="translate(179.54898, 226.077309)"><g><path d="M 0.0625 0.453125 L 3.015625 -5.390625 L 4.1875 -5.390625 L 1.21875 0.453125 Z M 0.0625 0.453125 "/></g></g></g><g fill="#ffffff" fill-opacity="1"><g transform="translate(183.548744, 226.077309)"><g><path d="M 0.984375 -0.640625 L 0.984375 -1.734375 L 1.890625 -2.0625 L 2.546875 -2.296875 L 1.890625 -2.546875 L 0.984375 -2.875 L 0.984375 -3.96875 L 4.046875 -2.734375 L 4.046875 -1.875 Z M 0.984375 -0.640625 "/></g></g></g></svg>